<svg width="30" height="30" viewBox="0 0 30 30" fill="none" xmlns="http://www.w3.org/2000/svg">
<path d="M10.9615 8.34615C10.8077 7.57692 10.7692 7.11538 10.9615 6.5C11 6.38462 11.0385 6.26923 11.0769 6.23077C11.1154 6.26923 11.1154 6.34615 11.1538 6.46154C11.3077 7.30769 11.3077 7.57692 11.0769 8.69231C11 8.53846 10.9615 8.46154 10.9615 8.34615ZM11.5769 13.1923C11.4615 13.5769 11.3077 14 11.1538 14.5385C10.7308 15.8077 10.5385 16.3077 10.4615 16.5769C10.3462 16.9615 10.3462 16.9615 10.0769 17.5769L10.0385 17.6538C9.96154 17.8846 9.84615 18.1154 9.73077 18.3462C10.5769 18 11.1538 17.8077 12.1154 17.5L12.6538 17.3077C13.0385 17.1923 13.3846 17.0769 13.6538 16.9615C13.7692 16.9231 13.8846 16.8846 14 16.8462C13.7692 16.5769 13.5769 16.2692 13.3077 15.9231C12.6154 15 12.1538 14.2308 11.5769 13.1923ZM4.76923 23C4.5 23.6923 4.61538 23.7692 4.65385 23.8077C4.76923 23.8846 4.96154 23.9615 5.11538 23.8462C5.34615 23.6154 5.42308 23.4615 5.80769 22.7308C5.92308 22.5385 6.03846 22.2692 6.19231 22C6.23077 21.9231 6.26923 21.8462 6.30769 21.7692C5.61538 22.1538 4.88462 22.6154 4.76923 23ZM19.0385 18.4615C19.1923 18.4231 19.2692 18.3846 19.2692 18.3846C19.2692 18.3462 19.2692 18.2308 19.2692 18.1154C19.2692 18.0769 19.1538 17.9231 18.7692 17.8462C18.1923 17.7308 17.8077 17.7308 17.4615 17.7308C17.3462 17.7308 17.2308 17.7308 17.1538 17.7308C17.8077 18.2692 18.1154 18.4231 18.3077 18.4615C18.3846 18.5 18.7308 18.5 19.0385 18.4615ZM23.8462 16.7308V22.2692L16.2308 30H3.80769C1.69231 30 0 28.2692 0 26.1154V3.88462C0 1.73077 1.69231 0 3.80769 0H20.0385C21.9615 0 23.5 1.42308 23.8077 3.26923C20.1154 3.30769 17.1154 6.30769 17.1154 10C17.1154 13.7308 20.1154 16.7308 23.8462 16.7308ZM22 23.0385H18.1154C17.4615 23.0385 16.9615 23.5385 16.9615 24.1923V28.1538L22 23.0385ZM19 16.3077C18.3077 16.1923 17.8462 16.1923 17.4231 16.1923C17 16.1923 16.6538 16.2308 16.1154 16.3077C15.9615 16.3462 15.7692 16.3846 15.6538 16.3846C15.2692 16 15 15.6154 14.5769 15.0385C13.7692 13.8846 13.2692 13.0769 12.4615 11.6538C12.3462 11.4615 12.2308 11.2308 12.1154 11.0385C12.1923 10.6923 12.2692 10.3077 12.3462 9.84615L12.4615 9.30769C12.7692 7.84615 12.8462 7.34615 12.6154 6.15385C12.3462 4.84615 11.4615 4.53846 11 4.57692C10.7692 4.57692 9.84615 4.73077 9.46154 6.07692C9.19231 7 9.23077 7.69231 9.46154 8.65385C9.61538 9.34615 9.96154 10.1923 10.5385 11.2308C10.3462 12.0385 10.1154 12.7692 9.69231 14C9.26923 15.2692 9.07692 15.7692 9 16.0769C8.88462 16.4231 8.88462 16.4231 8.65385 17L8.61539 17.0769C8.34615 17.8077 7.88462 18.6923 7.57692 19.2692C7.11538 19.5 6.65385 19.7308 6 20.1154C4.61539 20.9231 3.65385 21.5 3.30769 22.4231C3.11538 22.9231 2.65385 24.1538 3.65385 24.9615C4 25.2692 4.46154 25.4231 4.88462 25.4231C5.34615 25.4231 5.76923 25.2692 6.11538 24.9615C6.53846 24.5385 6.76923 24.1538 7.15385 23.4231C7.26923 23.2308 7.38462 23 7.53846 22.6923C8.15385 21.5 8.53846 20.6923 8.61539 20.5769C8.61539 20.5385 8.65385 20.5 8.69231 20.4615C8.96154 20.3462 9.26923 20.2308 9.61539 20.0769C10.8846 19.5385 11.4231 19.3846 12.5769 19L13.1154 18.8077C13.5385 18.6538 13.8462 18.5769 14.1538 18.4615C14.5385 18.3077 14.8462 18.2308 15.1538 18.1154C15.4231 18.3462 15.6923 18.6154 16.0385 18.8846C16.7692 19.5 17.2692 19.8077 17.8077 19.9615C18.2692 20.0769 18.9231 20.0385 19.3462 19.9231C20.6923 19.5769 20.7308 18.5769 20.7692 18.1538C20.8077 17.5769 20.4615 16.5769 19 16.3077ZM29.6154 10C29.6154 13.1923 27.0385 15.7692 23.8462 15.7692C20.6538 15.7692 18.0769 13.1923 18.0769 10C18.0769 6.80769 20.6538 4.23077 23.8462 4.23077C27.0385 4.23077 29.6154 6.80769 29.6154 10ZM26.3462 10.9615C26.3462 10.8077 26.3077 10.6538 26.1923 10.5385C25.9615 10.3077 25.6154 10.3077 25.3846 10.5385L24.4231 11.5V7.11538C24.4231 6.80769 24.1538 6.53846 23.8462 6.53846C23.5385 6.53846 23.2692 6.80769 23.2692 7.11538V11.5L22.3462 10.5769C22.1154 10.3462 21.7692 10.3462 21.5385 10.5769C21.3077 10.8077 21.3077 11.1538 21.5385 11.3846L23.4615 13.3077L23.5 13.3462C23.5769 13.4231 23.6923 13.4615 23.8077 13.5C23.8462 13.5 23.8462 13.5 23.8846 13.5H23.9231C24.0769 13.5 24.1923 13.4231 24.3077 13.3462L26.2308 11.4231C26.3077 11.2692 26.3462 11.1154 26.3462 10.9615Z" fill="#003C3C"/>
</svg>
