<svg width="118" height="91" viewBox="0 0 118 91" fill="none" xmlns="http://www.w3.org/2000/svg">
<g filter="url(#filter0_d_526_732)">
<path d="M49.2408 38.7047V77H11.4269C11.4269 63.0883 10.3024 49.2596 11.7035 35.6922C13.5805 17.5204 29.3995 6.52992 49.0652 8.15927V24.3311C42.4883 24.8815 35.0815 23.3089 30.5476 29.8637C28.9583 32.1624 28.2778 35.0906 26.7771 38.7047H49.2408Z" fill="#03C978" fill-opacity="0.8"/>
<path d="M106.895 8.36606V24.4217C96.9156 24.4811 86.2418 24.1381 85.2667 38.9018H106.672V76.8707H68.0977C68.7145 61.8013 67.8598 46.3266 70.3619 31.4176C73.0535 15.3786 89.3456 6.16685 106.895 8.36606Z" fill="#03C978" fill-opacity="0.8"/>
</g>
<defs>
<filter id="filter0_d_526_732" x="0.591735" y="0.193801" width="116.711" height="89.8165" filterUnits="userSpaceOnUse" color-interpolation-filters="sRGB">
<feFlood flood-opacity="0" result="BackgroundImageFix"/>
<feColorMatrix in="SourceAlpha" type="matrix" values="0 0 0 0 0 0 0 0 0 0 0 0 0 0 0 0 0 0 127 0" result="hardAlpha"/>
<feOffset dy="2.60207"/>
<feGaussianBlur stdDeviation="5.20413"/>
<feComposite in2="hardAlpha" operator="out"/>
<feColorMatrix type="matrix" values="0 0 0 0 0 0 0 0 0 0.301961 0 0 0 0 0.286275 0 0 0 0.2 0"/>
<feBlend mode="normal" in2="BackgroundImageFix" result="effect1_dropShadow_526_732"/>
<feBlend mode="normal" in="SourceGraphic" in2="effect1_dropShadow_526_732" result="shape"/>
</filter>
</defs>
</svg>
