<svg width="16" height="16" viewBox="0 0 16 16" fill="none" xmlns="http://www.w3.org/2000/svg">
<path d="M7.73585 0.381409C6.20584 0.381409 4.7102 0.835108 3.43804 1.68513C2.16589 2.53516 1.17437 3.74333 0.58886 5.15688C0.00335182 6.57042 -0.149844 8.12584 0.148646 9.62644C0.447135 11.1271 1.1839 12.5054 2.26578 13.5873C3.34766 14.6692 4.72605 15.406 6.22666 15.7045C7.72727 16.0029 9.28269 15.8498 10.6962 15.2642C12.1098 14.6787 13.3179 13.6872 14.168 12.4151C15.018 11.1429 15.4717 9.64726 15.4717 8.11726C15.4695 6.06625 14.6538 4.09986 13.2035 2.64958C11.7532 1.19929 9.78686 0.383575 7.73585 0.381409ZM7.73585 14.663C6.44123 14.663 5.17568 14.2791 4.09925 13.5598C3.02281 12.8406 2.18383 11.8183 1.6884 10.6222C1.19297 9.42612 1.06334 8.10999 1.31591 6.84025C1.56848 5.57051 2.1919 4.40417 3.10733 3.48874C4.02277 2.5733 5.1891 1.94988 6.45884 1.69731C7.72859 1.44475 9.04471 1.57437 10.2408 2.0698C11.4369 2.56523 12.4592 3.40421 13.1784 4.48065C13.8977 5.55709 14.2816 6.82264 14.2816 8.11726C14.2796 9.85268 13.5893 11.5165 12.3622 12.7436C11.1351 13.9707 9.47128 14.661 7.73585 14.663ZM8.92598 11.6876C8.92598 11.8455 8.86329 11.9968 8.75169 12.1084C8.64009 12.22 8.48874 12.2827 8.33092 12.2827C8.01527 12.2827 7.71256 12.1573 7.48937 11.9341C7.26617 11.7109 7.14079 11.4082 7.14079 11.0926V8.11726C6.98296 8.11726 6.83161 8.05456 6.72001 7.94297C6.60841 7.83137 6.54572 7.68001 6.54572 7.52219C6.54572 7.36437 6.60841 7.21301 6.72001 7.10142C6.83161 6.98982 6.98296 6.92713 7.14079 6.92713C7.45643 6.92713 7.75914 7.05251 7.98233 7.27571C8.20553 7.4989 8.33092 7.80161 8.33092 8.11726V11.0926C8.48874 11.0926 8.64009 11.1553 8.75169 11.2669C8.86329 11.3785 8.92598 11.5298 8.92598 11.6876ZM6.54572 4.8444C6.54572 4.66786 6.59807 4.49528 6.69615 4.3485C6.79423 4.20171 6.93363 4.0873 7.09674 4.01974C7.25984 3.95219 7.43931 3.93451 7.61246 3.96895C7.7856 4.00339 7.94465 4.0884 8.06948 4.21324C8.19431 4.33807 8.27932 4.49711 8.31376 4.67026C8.34821 4.84341 8.33053 5.02288 8.26297 5.18598C8.19541 5.34908 8.08101 5.48849 7.93422 5.58657C7.78743 5.68465 7.61486 5.737 7.43832 5.737C7.20159 5.737 6.97455 5.64295 6.80716 5.47556C6.63976 5.30817 6.54572 5.08113 6.54572 4.8444Z" fill="#003C3C"/>
</svg>
