<svg width="601" height="226" viewBox="0 0 601 226" fill="none" xmlns="http://www.w3.org/2000/svg">
<path fill-rule="evenodd" clip-rule="evenodd" d="M42.8898 156.488C41.6898 150.088 35.4898 149.888 33.0898 144.688C34.3898 151.688 40.5898 151.788 42.8898 156.488Z" fill="#009944"/>
<path d="M45.2891 174.588C45.2891 174.588 49.0891 161.088 67.3891 161.988C67.9891 161.988 54.5891 159.488 46.5891 170.088C46.7891 170.988 51.0891 152.388 73.6891 162.888C62.4891 164.488 61.2891 172.288 48.2891 170.688C48.2891 170.688 46.3891 173.588 46.0891 175.988" fill="#009944"/>
<path d="M44.9891 149.588C48.9891 142.288 61.0891 127.588 94.4891 123.388C95.5891 123.188 74.7891 123.788 57.5891 134.788C53.5891 137.288 49.2891 140.588 46.4891 143.888C46.1891 144.288 45.7891 144.788 45.4891 145.188C46.8891 141.788 49.1891 138.388 51.3891 135.188C60.0891 122.588 78.8891 115.888 114.689 122.388C83.9891 125.888 86.8891 143.288 53.0891 145.588C51.4891 145.788 49.1891 145.588 47.9891 146.588C46.4891 147.788 44.7891 150.388 44.2891 153.388" fill="#009944"/>
<path fill-rule="evenodd" clip-rule="evenodd" d="M42.4902 225.788C50.0902 197.288 35.7902 155.388 47.8902 122.988C40.6902 156.188 55.3902 201.988 42.4902 225.788Z" fill="#009944"/>
<path fill-rule="evenodd" clip-rule="evenodd" d="M98.7902 112.188C94.5902 115.388 88.9902 115.788 84.6902 113.788C84.6902 113.788 83.4902 113.288 82.3902 112.088C81.4902 110.788 57.6902 83.7882 57.6902 83.7882L57.5902 83.6882C64.9902 84.9882 72.9902 81.4882 77.1902 74.9882C81.3902 68.7882 81.1902 60.0882 77.2902 53.8882C72.5902 47.1882 63.3902 44.9882 55.6902 45.9882C42.3902 47.8882 32.7902 59.7882 29.7902 72.2882C26.6902 86.4882 28.8902 99.8882 33.6902 112.488C34.7902 115.188 36.2902 117.988 38.0902 120.288C24.0902 114.088 11.6902 102.788 5.19021 87.5882C-2.00979 71.1882 -1.90979 50.3882 6.69021 33.7882C13.3902 20.8882 25.3902 8.98818 40.0902 3.98818C55.4902 -2.41182 76.2902 -1.01182 91.3902 7.48818C109.69 16.6882 123.49 39.4882 123.49 59.7882C124.09 80.8882 114.89 99.8882 98.7902 112.188Z" fill="#DAB866"/>
<path fill-rule="evenodd" clip-rule="evenodd" d="M47.5904 120.188C40.7904 112.788 35.2904 103.088 39.3904 93.0881C43.0904 85.3881 46.3904 77.6881 47.9904 68.7881C48.5904 77.9881 54.1904 86.1881 56.7904 95.0881C57.7904 99.2881 57.8904 103.788 56.2904 108.188C54.4904 112.988 51.5904 117.088 48.1904 120.788" fill="#DAB866"/>
<path d="M190.79 149.688H187.49C186.89 147.388 185.59 144.888 183.69 142.188C181.79 139.588 179.89 138.088 178.09 137.788C177.19 137.688 176.09 137.588 174.89 137.488C173.69 137.388 172.29 137.388 170.69 137.388H160.19V162.488H167.29C169.49 162.488 171.09 162.288 172.29 161.788C173.49 161.288 174.49 160.588 175.39 159.688C175.99 158.988 176.49 157.988 176.99 156.688C177.49 155.288 177.79 153.888 177.89 152.288H181.19V176.888H177.89C177.79 175.588 177.49 174.088 176.99 172.488C176.49 170.888 175.89 169.688 175.29 168.888C174.39 167.788 173.29 167.088 171.99 166.688C170.69 166.288 169.09 166.088 167.19 166.088H160.09V187.788C160.09 188.788 160.29 189.588 160.69 190.388C161.09 191.188 161.69 191.788 162.69 192.188C163.09 192.388 164.09 192.688 165.49 192.988C166.99 193.288 168.09 193.388 168.79 193.488V196.588H142.09V193.488C142.99 193.388 144.19 193.288 145.59 193.188C147.09 193.088 147.99 192.888 148.49 192.688C149.39 192.288 149.99 191.688 150.39 190.988C150.79 190.288 150.99 189.288 150.99 188.288V143.088C150.99 142.088 150.79 141.288 150.49 140.488C150.19 139.788 149.49 139.088 148.49 138.688C147.69 138.288 146.59 137.988 145.29 137.688C143.99 137.388 142.89 137.188 142.09 137.188V134.088H190.89M237.29 174.388C237.29 177.488 236.79 180.488 235.89 183.388C234.89 186.388 233.49 188.888 231.79 190.888C229.79 193.288 227.39 194.988 224.79 196.188C222.09 197.288 219.19 197.888 215.89 197.888C213.09 197.888 210.49 197.388 208.09 196.288C205.59 195.288 203.39 193.688 201.49 191.688C199.59 189.688 198.09 187.288 196.99 184.488C195.89 181.688 195.29 178.488 195.29 174.888C195.29 168.088 197.29 162.588 201.19 158.188C205.09 153.888 210.29 151.688 216.59 151.688C222.59 151.688 227.59 153.788 231.59 157.888C235.29 162.088 237.29 167.588 237.29 174.388ZM228.19 174.488C228.19 172.288 227.99 169.988 227.49 167.488C227.09 165.088 226.39 162.988 225.49 161.288C224.59 159.488 223.29 157.988 221.79 156.888C220.29 155.788 218.39 155.188 216.19 155.188C213.99 155.188 211.99 155.788 210.39 156.888C208.79 157.988 207.49 159.488 206.49 161.488C205.59 163.288 204.89 165.288 204.49 167.588C204.09 169.888 203.89 172.088 203.89 174.288C203.89 177.088 204.09 179.688 204.59 182.088C205.09 184.488 205.79 186.588 206.79 188.488C207.79 190.388 208.99 191.888 210.49 192.888C211.99 193.988 213.89 194.488 216.09 194.488C219.69 194.488 222.59 192.688 224.79 189.188C227.19 185.688 228.19 180.788 228.19 174.488ZM289.89 195.788L275.79 196.788L275.09 196.188V190.688H274.79C274.09 191.388 273.29 192.188 272.39 193.088C271.49 193.888 270.49 194.688 269.39 195.388C268.09 196.188 266.79 196.788 265.59 197.188C264.39 197.588 262.59 197.788 260.39 197.788C256.59 197.788 253.69 196.588 251.69 193.988C249.69 191.488 248.69 187.788 248.69 182.988V162.188C248.69 161.188 248.49 160.288 248.09 159.488C247.69 158.788 247.09 158.088 246.39 157.588C245.89 157.188 245.19 156.988 244.39 156.788C243.59 156.588 242.79 156.488 241.89 156.488V153.588L256.29 152.588L256.99 153.188V183.388C256.99 186.488 257.69 188.888 259.09 190.488C260.49 192.088 262.19 192.888 264.09 192.888C265.69 192.888 267.09 192.588 268.39 192.188C269.69 191.688 270.69 191.088 271.49 190.388C272.29 189.788 272.99 189.088 273.59 188.388C274.19 187.688 274.69 187.088 274.99 186.488V161.788C274.99 160.788 274.79 159.988 274.39 159.188C273.99 158.388 273.39 157.788 272.69 157.288C272.19 156.888 271.39 156.688 270.29 156.688C269.29 156.588 268.09 156.588 266.79 156.488V153.588L282.49 152.588L283.19 153.188V187.788C283.19 188.788 283.39 189.688 283.79 190.388C284.19 191.088 284.79 191.688 285.49 192.188C285.99 192.488 286.59 192.688 287.39 192.888C288.09 192.988 288.89 193.088 289.79 193.088V195.788H289.89ZM342.89 196.588H321.69V193.688C322.39 193.588 323.09 193.588 323.89 193.488C324.69 193.388 325.39 193.288 325.89 193.088C326.69 192.788 327.29 192.388 327.69 191.688C328.09 190.988 328.29 190.188 328.29 189.088V166.788C328.29 163.688 327.59 161.288 326.09 159.688C324.59 157.988 322.89 157.188 320.79 157.188C319.19 157.188 317.79 157.388 316.49 157.888C315.19 158.388 314.09 158.988 313.09 159.688C312.09 160.388 311.39 161.088 310.79 161.888C310.19 162.688 309.79 163.288 309.59 163.788V188.788C309.59 189.788 309.79 190.588 310.19 191.288C310.59 191.888 311.19 192.388 311.99 192.788C312.59 193.088 313.29 193.288 313.99 193.488C314.69 193.688 315.39 193.788 316.19 193.788V196.688H294.99V193.788C295.69 193.688 296.39 193.688 297.09 193.588C297.79 193.488 298.39 193.388 298.99 193.188C299.79 192.888 300.39 192.488 300.79 191.788C301.19 191.088 301.39 190.288 301.39 189.188V162.288C301.39 161.288 301.19 160.388 300.69 159.488C300.29 158.688 299.69 157.988 298.89 157.388C298.39 157.088 297.69 156.788 296.89 156.588C296.09 156.388 295.29 156.288 294.39 156.288V153.388L308.79 152.388L309.39 152.988V159.088H309.59C310.29 158.388 311.19 157.488 312.19 156.588C313.19 155.588 314.29 154.788 315.19 154.188C316.29 153.488 317.59 152.888 319.09 152.388C320.59 151.888 322.29 151.688 324.09 151.688C328.29 151.688 331.29 152.988 333.29 155.588C335.29 158.188 336.29 161.688 336.29 165.988V188.588C336.29 189.588 336.49 190.488 336.79 191.088C337.09 191.688 337.69 192.188 338.59 192.588C339.29 192.888 339.89 193.088 340.39 193.188C340.89 193.288 341.59 193.388 342.49 193.488V196.588H342.89ZM395.49 195.788L380.39 196.788L379.69 196.188V192.088L379.39 191.988C377.89 193.688 375.99 195.088 373.79 196.188C371.59 197.288 369.29 197.788 366.89 197.788C364.49 197.788 362.09 197.188 359.79 196.088C357.49 194.988 355.49 193.488 353.79 191.488C352.09 189.488 350.69 186.988 349.69 184.188C348.69 181.288 348.19 178.188 348.19 174.788C348.19 171.688 348.69 168.688 349.79 165.788C350.89 162.988 352.39 160.488 354.29 158.388C356.09 156.388 358.29 154.888 360.89 153.688C363.49 152.488 366.09 151.888 368.79 151.888C370.79 151.888 372.79 152.188 374.69 152.688C376.59 153.188 378.29 153.888 379.69 154.688V139.588C379.69 138.388 379.49 137.188 379.09 136.188C378.69 135.188 378.09 134.388 377.39 133.888C376.59 133.288 375.49 132.888 374.09 132.688C372.69 132.488 371.19 132.288 369.59 132.188V129.488L387.29 128.488L387.99 129.188V187.888C387.99 188.888 388.19 189.788 388.59 190.488C388.99 191.188 389.59 191.788 390.29 192.288C390.89 192.688 391.69 192.888 392.69 192.988C393.69 193.088 394.69 193.188 395.59 193.188V195.788H395.49ZM379.69 188.188V162.788C379.49 161.988 379.09 161.188 378.59 160.288C378.09 159.388 377.39 158.588 376.59 157.888C375.79 157.188 374.79 156.488 373.59 156.088C372.49 155.588 371.09 155.388 369.59 155.388C367.79 155.388 366.19 155.888 364.79 156.788C363.29 157.688 361.99 158.988 360.89 160.688C359.79 162.388 358.99 164.488 358.29 166.988C357.69 169.488 357.39 172.388 357.39 175.388C357.39 177.888 357.59 180.088 358.09 182.088C358.59 184.088 359.39 185.988 360.49 187.688C361.49 189.388 362.79 190.688 364.39 191.688C365.99 192.688 367.89 193.188 370.09 193.188C372.39 193.188 374.39 192.688 375.89 191.588C377.29 190.588 378.59 189.388 379.69 188.188ZM440.59 195.788C439.19 196.288 437.99 196.688 436.99 196.988C435.99 197.288 434.79 197.488 433.49 197.488C431.19 197.488 429.39 196.988 427.99 195.888C426.59 194.788 425.79 193.288 425.39 191.188H425.09C423.19 193.288 421.19 194.888 418.99 196.088C416.79 197.188 414.19 197.788 411.19 197.788C407.99 197.788 405.29 196.788 403.19 194.788C401.09 192.788 400.09 190.188 400.09 186.988C400.09 185.288 400.29 183.788 400.79 182.488C401.29 181.188 401.99 179.988 402.89 178.888C403.59 177.988 404.59 177.188 405.79 176.488C406.99 175.788 408.09 175.288 409.19 174.788C410.49 174.288 413.19 173.388 417.19 171.988C421.19 170.588 423.89 169.588 425.29 168.788V164.388C425.29 163.988 425.19 163.288 425.09 162.188C424.89 161.088 424.59 160.088 424.09 159.088C423.49 157.988 422.69 156.988 421.59 156.288C420.49 155.488 418.99 155.088 417.09 155.088C415.79 155.088 414.49 155.288 413.39 155.788C412.29 156.188 411.39 156.688 410.99 157.188C410.99 157.788 411.09 158.588 411.39 159.788C411.69 160.888 411.79 161.988 411.79 162.988C411.79 163.988 411.29 164.988 410.39 165.788C409.49 166.688 408.19 167.088 406.59 167.088C405.19 167.088 404.09 166.588 403.39 165.488C402.69 164.388 402.39 163.288 402.39 161.988C402.39 160.588 402.89 159.288 403.79 158.088C404.79 156.888 405.99 155.788 407.49 154.788C408.79 153.988 410.39 153.288 412.29 152.688C414.19 152.088 415.99 151.788 417.79 151.788C420.19 151.788 422.39 151.988 424.19 152.288C425.99 152.588 427.69 153.388 429.19 154.488C430.69 155.588 431.79 157.088 432.59 158.888C433.39 160.788 433.79 163.188 433.79 166.088C433.79 170.288 433.79 173.988 433.69 177.288C433.59 180.588 433.59 184.088 433.59 187.988C433.59 189.088 433.79 190.088 434.19 190.688C434.59 191.388 435.19 191.988 435.99 192.388C436.49 192.688 437.09 192.788 438.09 192.788C439.09 192.788 439.99 192.788 440.99 192.788V195.788H440.59ZM425.29 172.488C422.79 173.188 420.59 173.988 418.79 174.688C416.89 175.388 415.19 176.288 413.59 177.288C412.09 178.288 410.99 179.488 410.09 180.788C409.29 182.188 408.79 183.788 408.79 185.688C408.79 188.088 409.39 189.888 410.69 191.088C411.99 192.188 413.59 192.788 415.49 192.788C417.59 192.788 419.39 192.288 420.99 191.288C422.59 190.288 423.89 189.088 424.99 187.688L425.29 172.488ZM471.59 194.688C469.69 195.488 467.89 196.188 466.19 196.688C464.49 197.188 462.39 197.488 459.99 197.488C456.39 197.488 453.79 196.588 452.39 194.688C450.89 192.888 450.19 190.288 450.19 186.888V157.388H442.39V153.188H450.39V139.788H458.39V153.288H470.79V157.488H458.49V181.788C458.49 183.588 458.59 185.088 458.69 186.388C458.79 187.588 459.09 188.688 459.59 189.588C460.09 190.488 460.79 191.088 461.69 191.488C462.59 191.888 463.89 192.188 465.49 192.188C466.19 192.188 467.29 192.088 468.69 191.988C470.09 191.888 471.09 191.688 471.69 191.488V194.688H471.59ZM496.79 196.588H475.89V193.688C476.59 193.588 477.29 193.588 477.99 193.488C478.69 193.388 479.29 193.288 479.79 193.088C480.59 192.788 481.19 192.388 481.59 191.688C481.99 190.988 482.19 190.188 482.19 189.088V162.188C482.19 161.288 481.99 160.388 481.59 159.588C481.19 158.788 480.59 158.188 479.79 157.588C479.19 157.188 478.49 156.888 477.39 156.688C476.39 156.388 475.39 156.288 474.49 156.188V153.288L489.79 152.288L490.39 152.888V188.388C490.39 189.388 490.59 190.288 490.99 190.988C491.39 191.688 491.99 192.188 492.89 192.488C493.49 192.788 494.19 192.988 494.79 193.188C495.39 193.288 496.09 193.488 496.89 193.488V196.588H496.79ZM491.29 135.488C491.29 137.188 490.79 138.588 489.69 139.888C488.59 141.088 487.29 141.788 485.59 141.788C484.09 141.788 482.79 141.188 481.69 139.988C480.59 138.788 480.09 137.388 480.09 135.888C480.09 134.288 480.69 132.888 481.69 131.688C482.79 130.488 484.09 129.888 485.59 129.888C487.29 129.888 488.59 130.488 489.69 131.588C490.79 132.588 491.29 133.888 491.29 135.488ZM544.19 174.388C544.19 177.488 543.69 180.488 542.79 183.388C541.79 186.388 540.49 188.888 538.69 190.888C536.69 193.288 534.39 194.988 531.69 196.188C528.99 197.288 526.09 197.888 522.79 197.888C519.99 197.888 517.39 197.388 514.99 196.288C512.49 195.288 510.29 193.688 508.39 191.688C506.49 189.688 504.99 187.288 503.89 184.488C502.79 181.688 502.19 178.488 502.19 174.888C502.19 168.088 504.19 162.588 508.09 158.188C511.99 153.888 517.19 151.688 523.49 151.688C529.49 151.688 534.49 153.788 538.49 157.888C542.29 162.088 544.19 167.588 544.19 174.388ZM535.19 174.488C535.19 172.288 534.99 169.988 534.49 167.488C534.09 165.088 533.39 162.988 532.49 161.288C531.59 159.488 530.39 157.988 528.79 156.888C527.29 155.788 525.39 155.188 523.19 155.188C520.99 155.188 518.99 155.788 517.39 156.888C515.79 157.988 514.49 159.488 513.49 161.488C512.59 163.288 511.89 165.288 511.49 167.588C511.09 169.888 510.89 172.088 510.89 174.288C510.89 177.088 511.09 179.688 511.59 182.088C511.99 184.488 512.79 186.588 513.79 188.488C514.79 190.388 515.99 191.888 517.49 192.888C518.99 193.988 520.89 194.488 523.09 194.488C526.69 194.488 529.59 192.688 531.79 189.188C534.09 185.688 535.19 180.788 535.19 174.488ZM598.19 196.588H577.09V193.688C577.79 193.588 578.49 193.588 579.29 193.488C580.09 193.388 580.79 193.288 581.29 193.088C582.09 192.788 582.69 192.388 583.09 191.688C583.49 190.988 583.69 190.188 583.69 189.088V166.788C583.69 163.688 582.99 161.288 581.49 159.688C580.09 157.988 578.29 157.188 576.19 157.188C574.59 157.188 573.19 157.388 571.89 157.888C570.59 158.388 569.49 158.988 568.49 159.688C567.49 160.388 566.79 161.088 566.19 161.888C565.59 162.688 565.19 163.288 564.99 163.788V188.788C564.99 189.788 565.19 190.588 565.59 191.288C565.99 191.888 566.59 192.388 567.39 192.788C567.99 193.088 568.69 193.288 569.39 193.488C570.09 193.688 570.79 193.788 571.59 193.788V196.688H550.39V193.788C551.09 193.688 551.79 193.688 552.49 193.588C553.19 193.488 553.79 193.388 554.39 193.188C555.19 192.888 555.79 192.488 556.19 191.788C556.59 191.088 556.79 190.288 556.79 189.188V162.288C556.79 161.288 556.59 160.388 556.19 159.488C555.79 158.688 555.19 157.988 554.39 157.388C553.89 157.088 553.19 156.788 552.39 156.588C551.59 156.388 550.79 156.288 549.99 156.288V153.388L564.39 152.388L564.99 152.988V159.088H565.19C565.89 158.388 566.79 157.488 567.79 156.588C568.79 155.588 569.79 154.788 570.79 154.188C571.89 153.488 573.19 152.888 574.69 152.388C576.19 151.888 577.89 151.688 579.69 151.688C583.89 151.688 586.89 152.988 588.89 155.588C590.89 158.188 591.89 161.688 591.89 165.988V188.588C591.89 189.588 592.09 190.488 592.39 191.088C592.69 191.688 593.29 192.188 594.19 192.588C594.89 192.888 595.49 193.088 595.99 193.188C596.49 193.288 597.19 193.388 598.09 193.488V196.588H598.19Z" fill="#009944"/>
<path fill-rule="evenodd" clip-rule="evenodd" d="M224.29 111.388H201.29C196.19 103.388 191.59 96.3885 187.39 90.4885C183.29 84.5885 178.79 78.5885 173.99 72.2885H165.29V99.5885C165.29 100.988 165.49 102.288 165.99 103.288C166.39 104.388 167.39 105.188 168.79 105.688C169.49 105.988 170.79 106.288 172.59 106.488C174.39 106.788 175.89 106.888 177.19 106.888V111.188H140.99V106.888C141.99 106.788 143.39 106.688 145.19 106.488C146.99 106.288 148.29 105.988 148.99 105.688C150.19 105.188 151.09 104.388 151.59 103.388C152.19 102.388 152.39 101.088 152.39 99.4885V37.1885C152.39 35.7885 152.19 34.4885 151.79 33.3885C151.39 32.2885 150.49 31.4885 148.99 30.8885C147.99 30.4885 146.69 30.1885 145.09 29.8885C143.49 29.5885 142.09 29.3885 140.99 29.2885V24.9885H180.49C184.09 24.9885 187.49 25.3885 190.69 26.0885C193.89 26.7885 196.69 27.9885 199.29 29.6885C201.79 31.2885 203.79 33.3885 205.29 35.9885C206.79 38.5885 207.59 41.7885 207.59 45.3885C207.59 48.6885 207.09 51.6885 206.09 54.1885C205.09 56.6885 203.59 58.8885 201.59 60.7885C199.79 62.4885 197.59 64.0885 195.09 65.2885C192.59 66.5885 189.79 67.6885 186.69 68.5885C190.89 74.1885 194.39 78.9885 197.19 82.7885C199.99 86.5885 203.39 91.2885 207.49 96.7885C209.29 99.1885 210.89 100.988 212.29 102.188C213.69 103.288 215.09 104.288 216.49 104.988C217.49 105.488 218.89 105.888 220.39 106.188C221.99 106.488 223.19 106.588 224.29 106.688M192.59 47.0885C192.59 41.8885 191.09 37.7885 188.09 34.6885C185.09 31.5885 180.89 30.0885 175.49 30.0885H165.29V67.0885H173.19C178.69 67.0885 183.39 65.2885 186.99 61.6885C190.79 58.0885 192.59 53.2885 192.59 47.0885ZM278.89 97.2885C276.39 102.088 273.09 105.888 268.89 108.688C264.69 111.488 259.89 112.888 254.49 112.888C249.69 112.888 245.49 112.088 241.89 110.388C238.29 108.688 235.29 106.388 232.99 103.488C230.69 100.588 228.89 97.1885 227.79 93.2885C226.69 89.3885 226.09 85.2885 226.09 80.9885C226.09 77.0885 226.69 73.2885 227.89 69.5885C229.09 65.8885 230.89 62.4885 233.29 59.4885C235.59 56.5885 238.39 54.2885 241.79 52.4885C245.19 50.6885 248.99 49.7885 253.19 49.7885C257.49 49.7885 261.29 50.4885 264.39 51.8885C267.49 53.2885 269.99 55.0885 271.89 57.4885C273.79 59.7885 275.09 62.3885 275.99 65.4885C276.89 68.5885 277.39 71.8885 277.39 75.4885V79.4885H238.09C238.09 83.3885 238.49 86.9885 239.19 90.1885C239.89 93.3885 241.09 96.1885 242.69 98.5885C244.29 100.888 246.29 102.788 248.79 104.188C251.29 105.488 254.39 106.188 257.89 106.188C261.49 106.188 264.59 105.388 267.19 103.688C269.79 101.988 272.29 98.9885 274.69 94.5885L278.89 97.2885ZM265.59 74.3885C265.59 72.0885 265.39 69.6885 264.99 67.0885C264.59 64.4885 263.99 62.3885 263.19 60.5885C262.29 58.6885 260.99 57.1885 259.39 55.9885C257.79 54.7885 255.69 54.1885 253.19 54.1885C248.99 54.1885 245.49 55.9885 242.69 59.4885C239.89 62.9885 238.39 67.9885 238.19 74.2885H265.59V74.3885ZM312.59 111.388H284.59V107.488C285.49 107.388 286.49 107.288 287.49 107.188C288.49 107.088 289.29 106.988 289.99 106.788C291.09 106.488 291.89 105.788 292.39 104.988C292.89 104.088 293.19 102.988 293.19 101.588L292.29 37.6885C292.29 36.9885 291.99 34.8885 291.59 33.4885C291.39 32.7885 291.19 32.2885 291.09 32.0885C290.89 31.8885 290.79 31.6885 290.59 31.3885C289.59 30.4885 290.79 31.6885 289.89 30.8885C289.29 30.2885 290.19 30.6885 288.29 30.2885C286.49 29.8885 283.39 30.7885 282.19 30.6885L282.09 26.4885L302.99 25.3885L303.99 26.2885L304.09 100.988C304.09 102.388 304.39 103.488 304.89 104.388C305.39 105.288 306.19 105.988 307.29 106.388C308.19 106.788 308.99 107.088 309.79 107.288C310.59 107.488 311.59 107.688 312.59 107.688V111.388ZM348.59 111.388H320.09V107.388C320.99 107.288 321.99 107.288 322.89 107.188C323.89 107.088 324.69 106.988 325.39 106.688C326.49 106.288 327.29 105.688 327.89 104.788C328.39 103.888 328.69 102.688 328.69 101.288V64.5885C328.69 63.2885 328.39 62.1885 327.79 61.0885C327.19 59.9885 326.39 59.0885 325.39 58.3885C324.59 57.8885 323.49 57.4885 322.09 57.1885C320.69 56.8885 319.39 56.5885 318.19 56.5885V52.6885L338.99 51.3885L339.79 52.1885V100.588C339.79 101.988 340.09 103.188 340.59 104.088C341.09 104.988 341.99 105.688 343.09 106.088C343.99 106.488 344.79 106.788 345.69 106.988C346.49 107.188 347.49 107.388 348.49 107.388V111.388H348.59ZM340.99 27.8885C340.99 30.1885 340.29 32.1885 338.69 33.8885C337.19 35.5885 335.39 36.4885 333.19 36.4885C331.19 36.4885 329.39 35.6885 327.89 34.0885C326.39 32.4885 325.69 30.5885 325.69 28.4885C325.69 26.2885 326.49 24.3885 327.89 22.6885C329.39 21.0885 331.19 20.1885 333.19 20.1885C335.49 20.1885 337.29 20.9885 338.79 22.4885C340.29 23.9885 340.99 25.7885 340.99 27.8885ZM412.19 110.288C410.29 110.988 408.69 111.488 407.19 111.988C405.79 112.388 404.19 112.688 402.29 112.688C399.19 112.688 396.69 111.988 394.79 110.488C392.89 108.988 391.69 106.888 391.19 103.988H390.79C388.19 106.888 385.39 109.088 382.39 110.688C379.39 112.188 375.79 112.988 371.59 112.988C367.09 112.988 363.49 111.588 360.59 108.888C357.69 106.188 356.29 102.488 356.29 98.0885C356.29 95.7885 356.59 93.6885 357.29 91.8885C357.99 90.0885 358.89 88.3885 360.19 86.9885C361.19 85.7885 362.49 84.6885 364.19 83.7885C365.79 82.7885 367.39 82.0885 368.89 81.4885C370.69 80.7885 374.39 79.4885 379.89 77.6885C385.49 75.7885 389.19 74.3885 391.09 73.2885V67.2885C391.09 66.7885 390.99 65.7885 390.79 64.2885C390.59 62.7885 390.09 61.3885 389.39 60.0885C388.59 58.5885 387.49 57.2885 385.99 56.1885C384.49 55.0885 382.49 54.4885 379.79 54.4885C377.89 54.4885 376.19 54.7885 374.69 55.4885C373.09 56.0885 371.99 56.7885 371.29 57.4885C371.29 58.2885 371.49 59.4885 371.89 61.0885C372.29 62.6885 372.49 64.0885 372.49 65.4885C372.49 66.8885 371.89 68.1885 370.59 69.3885C369.29 70.5885 367.59 71.1885 365.29 71.1885C363.29 71.1885 361.79 70.4885 360.89 68.9885C359.99 67.5885 359.49 65.9885 359.49 64.1885C359.49 62.2885 360.19 60.5885 361.49 58.7885C362.79 57.0885 364.49 55.5885 366.59 54.2885C368.39 53.0885 370.59 52.1885 373.19 51.3885C375.79 50.5885 378.29 50.1885 380.69 50.1885C384.09 50.1885 386.99 50.4885 389.49 50.8885C391.99 51.3885 394.29 52.3885 396.29 53.8885C398.39 55.3885 399.89 57.3885 400.99 59.9885C402.09 62.5885 402.59 65.8885 402.59 69.8885C402.59 75.6885 402.49 80.7885 402.39 85.2885C402.29 89.7885 402.19 94.6885 402.19 99.9885C402.19 101.588 402.49 102.788 402.99 103.688C403.49 104.588 404.39 105.388 405.49 106.088C406.09 106.488 407.09 106.688 408.39 106.688C409.69 106.688 411.09 106.788 412.39 106.788V110.288H412.19ZM391.09 78.1885C387.69 79.1885 384.69 80.1885 382.09 81.1885C379.49 82.1885 377.09 83.3885 374.89 84.8885C372.89 86.2885 371.29 87.8885 370.09 89.7885C368.89 91.6885 368.39 93.8885 368.39 96.4885C368.39 99.8885 369.29 102.288 370.99 103.888C372.69 105.488 374.99 106.288 377.69 106.288C380.59 106.288 383.09 105.588 385.29 104.188C387.49 102.788 389.29 101.188 390.79 99.2885L391.09 78.1885ZM483.79 111.388H454.69V107.388C455.59 107.288 456.69 107.188 457.79 107.088C458.89 106.988 459.79 106.888 460.49 106.588C461.59 106.188 462.49 105.588 462.99 104.688C463.59 103.788 463.79 102.588 463.79 101.188V70.3885C463.79 66.1885 462.79 62.8885 460.79 60.5885C458.79 58.2885 456.39 57.0885 453.49 57.0885C451.39 57.0885 449.39 57.3885 447.59 58.0885C445.89 58.7885 444.29 59.5885 442.89 60.5885C441.59 61.4885 440.49 62.4885 439.69 63.5885C438.89 64.6885 438.29 65.4885 437.99 66.1885V100.588C437.99 101.988 438.29 103.088 438.79 103.988C439.39 104.888 440.19 105.588 441.29 106.088C442.19 106.488 443.09 106.788 444.09 106.988C445.09 107.188 446.09 107.288 447.19 107.388V111.388H418.09V107.388C418.99 107.288 419.99 107.188 420.99 107.088C421.99 106.988 422.79 106.888 423.59 106.588C424.69 106.188 425.59 105.588 426.09 104.688C426.69 103.788 426.89 102.588 426.89 101.188V64.1885C426.89 62.7885 426.59 61.4885 425.99 60.3885C425.39 59.2885 424.59 58.2885 423.59 57.5885C422.79 57.0885 421.89 56.7885 420.89 56.4885C419.89 56.2885 418.69 56.0885 417.49 55.9885V52.0885L437.29 50.7885L438.09 51.6885V60.0885H438.39C439.39 59.0885 440.59 57.9885 441.99 56.5885C443.39 55.1885 444.79 54.0885 446.09 53.2885C447.59 52.2885 449.39 51.4885 451.39 50.8885C453.39 50.2885 455.79 49.8885 458.29 49.8885C463.99 49.8885 468.19 51.6885 470.99 55.2885C473.79 58.8885 475.09 63.6885 475.09 69.5885V100.688C475.09 102.088 475.39 103.288 475.79 104.088C476.29 104.988 477.09 105.688 478.29 106.088C479.29 106.488 480.09 106.788 480.79 106.988C481.49 107.188 482.49 107.288 483.69 107.388V111.388H483.79ZM518.59 112.888C509.99 112.888 503.29 109.988 498.39 104.288C493.49 98.5885 491.09 90.8885 491.09 81.1885C491.09 76.9885 491.79 73.0885 493.09 69.3885C494.39 65.6885 496.29 62.3885 498.79 59.3885C501.19 56.4885 504.19 54.1885 507.69 52.3885C511.19 50.5885 515.19 49.6885 519.39 49.6885C525.19 49.6885 529.99 51.0885 533.59 53.8885C537.29 56.6885 539.09 60.4885 539.09 65.3885C539.09 67.4885 538.59 69.1885 537.69 70.7885C536.69 72.3885 535.09 73.1885 532.89 73.1885C530.49 73.1885 528.69 72.5885 527.39 71.3885C526.09 70.1885 525.39 68.7885 525.39 67.2885C525.39 65.4885 525.69 63.5885 526.09 61.6885C526.59 59.7885 526.79 58.3885 526.89 57.4885C526.19 56.2885 525.09 55.3885 523.69 54.9885C522.29 54.5885 520.69 54.3885 519.09 54.3885C517.19 54.3885 515.29 54.7885 513.59 55.5885C511.79 56.3885 510.09 57.9885 508.49 60.1885C506.99 62.1885 505.79 64.9885 504.89 68.3885C503.99 71.7885 503.49 75.9885 503.49 80.6885C503.49 88.1885 505.19 94.3885 508.49 99.0885C511.79 103.788 516.19 106.188 521.59 106.188C525.49 106.188 528.79 105.188 531.39 103.288C533.99 101.388 536.49 98.5885 538.69 94.7885L542.59 97.2885C539.89 102.088 536.39 105.788 532.09 108.588C527.69 111.488 523.19 112.888 518.59 112.888ZM600.09 97.2885C597.59 102.088 594.29 105.888 590.09 108.688C585.89 111.488 581.09 112.888 575.69 112.888C570.89 112.888 566.69 112.088 563.09 110.388C559.49 108.688 556.49 106.388 554.19 103.488C551.89 100.588 550.09 97.1885 548.99 93.2885C547.89 89.3885 547.29 85.2885 547.29 80.9885C547.29 77.0885 547.89 73.2885 549.09 69.5885C550.29 65.8885 552.09 62.4885 554.49 59.4885C556.79 56.5885 559.59 54.2885 562.99 52.4885C566.39 50.6885 570.19 49.7885 574.39 49.7885C578.69 49.7885 582.49 50.4885 585.59 51.8885C588.69 53.2885 591.19 55.0885 593.19 57.4885C594.99 59.7885 596.39 62.3885 597.29 65.4885C598.19 68.5885 598.69 71.8885 598.69 75.4885V79.4885H559.29C559.29 83.3885 559.69 86.9885 560.39 90.1885C561.09 93.3885 562.29 96.1885 563.89 98.5885C565.49 100.888 567.49 102.788 569.99 104.188C572.49 105.488 575.59 106.188 579.09 106.188C582.69 106.188 585.79 105.388 588.39 103.688C590.99 101.988 593.49 98.9885 595.89 94.5885L600.09 97.2885ZM586.69 74.3885C586.69 72.0885 586.49 69.6885 586.09 67.0885C585.69 64.4885 585.09 62.3885 584.29 60.5885C583.39 58.6885 582.09 57.1885 580.49 55.9885C578.89 54.7885 576.79 54.1885 574.29 54.1885C570.09 54.1885 566.59 55.9885 563.79 59.4885C560.99 62.9885 559.49 67.9885 559.29 74.2885H586.69V74.3885Z" fill="#231815"/>
</svg>
