<svg width="28" height="20" viewBox="0 0 28 20" fill="none" xmlns="http://www.w3.org/2000/svg">
<path fill-rule="evenodd" clip-rule="evenodd" d="M2.10206 0.631836C1.28631 0.631836 0.625 1.22421 0.625 1.95493C0.625 2.68564 1.28631 3.27802 2.10206 3.27802H25.7351C26.5508 3.27802 27.2121 2.68564 27.2121 1.95493C27.2121 1.22421 26.5508 0.631836 25.7351 0.631836H2.10206ZM6.53325 9.89347C6.53325 9.16273 7.19456 8.57038 8.01031 8.57038H25.7351C26.5508 8.57038 27.2121 9.16273 27.2121 9.89347C27.2121 10.6242 26.5508 11.2166 25.7351 11.2166H8.01031C7.19456 11.2166 6.53325 10.6242 6.53325 9.89347ZM15.3956 17.832C15.3956 17.1013 16.0569 16.5089 16.8727 16.5089H25.7351C26.5508 16.5089 27.2121 17.1013 27.2121 17.832C27.2121 18.5628 26.5508 19.1551 25.7351 19.1551H16.8727C16.0569 19.1551 15.3956 18.5628 15.3956 17.832Z" fill="#005544"/>
</svg>
