<svg width="162" height="124" viewBox="0 0 162 124" fill="none" xmlns="http://www.w3.org/2000/svg">
<g filter="url(#filter0_d_980_1364)">
<path d="M67.6504 53.2746V106H15.5878C15.5878 86.8462 14.0395 67.8066 15.9686 49.127C18.5528 24.1078 40.3327 8.97597 67.4086 11.2193V33.4848C58.3534 34.2427 48.1557 32.0775 41.9133 41.1021C39.7252 44.2671 38.7883 48.2986 36.7221 53.2746H67.6504Z" fill="white"/>
<path d="M147.026 11.504V33.6096C133.286 33.6915 118.59 33.2192 117.248 53.5461H146.719V105.822H93.6094C94.4587 85.0743 93.2818 63.7685 96.7268 43.2417C100.433 21.159 122.864 8.47614 147.026 11.504Z" fill="white"/>
</g>
<defs>
<filter id="filter0_d_980_1364" x="0.669777" y="0.252333" width="160.684" height="123.66" filterUnits="userSpaceOnUse" color-interpolation-filters="sRGB">
<feFlood flood-opacity="0" result="BackgroundImageFix"/>
<feColorMatrix in="SourceAlpha" type="matrix" values="0 0 0 0 0 0 0 0 0 0 0 0 0 0 0 0 0 0 127 0" result="hardAlpha"/>
<feOffset dy="3.58256"/>
<feGaussianBlur stdDeviation="7.16511"/>
<feComposite in2="hardAlpha" operator="out"/>
<feColorMatrix type="matrix" values="0 0 0 0 0 0 0 0 0 0.301961 0 0 0 0 0.286275 0 0 0 0.2 0"/>
<feBlend mode="normal" in2="BackgroundImageFix" result="effect1_dropShadow_980_1364"/>
<feBlend mode="normal" in="SourceGraphic" in2="effect1_dropShadow_980_1364" result="shape"/>
</filter>
</defs>
</svg>
