<svg width="139" height="347" viewBox="0 0 139 347" fill="none" xmlns="http://www.w3.org/2000/svg">
<g opacity="0.22">
<path fill-rule="evenodd" clip-rule="evenodd" d="M3.06999 237.127C1.31617 227.774 -7.74528 227.481 -11.2529 219.881C-9.35295 230.112 -0.291507 230.258 3.06999 237.127Z" fill="#009944" fill-opacity="0.7"/>
<path d="M6.57812 263.581C6.57812 263.581 12.1319 243.851 38.8778 245.166C39.7547 245.166 20.1703 241.512 8.47811 257.004C8.77041 258.32 15.055 231.135 48.0854 246.481C31.7163 248.82 29.9625 260.22 10.9627 257.881C10.9627 257.881 8.1858 262.12 7.74735 265.627" fill="#009944" fill-opacity="0.7"/>
<path d="M6.13831 227.042C11.9844 216.372 29.6688 194.888 78.4837 188.75C80.0914 188.457 49.6917 189.334 24.5535 205.411C18.7074 209.065 12.4229 213.888 8.33059 218.711C7.89213 219.296 7.30753 220.026 6.86907 220.611C8.9152 215.642 12.2767 210.673 15.4921 205.996C28.2073 187.58 55.6839 177.788 108.006 187.288C63.1377 192.404 67.3761 217.834 17.9766 221.195C15.6382 221.488 12.2767 221.195 10.5229 222.657C8.33059 224.411 5.846 228.211 5.11523 232.595" fill="#009944" fill-opacity="0.7"/>
<path fill-rule="evenodd" clip-rule="evenodd" d="M2.48438 338.41C13.5919 296.757 -7.30782 235.519 10.3766 188.166C-0.146363 236.688 21.338 303.626 2.48438 338.41Z" fill="#009944" fill-opacity="0.7"/>
<path fill-rule="evenodd" clip-rule="evenodd" d="M84.7699 172.381C78.6315 177.058 70.4469 177.643 64.1624 174.72C64.1624 174.72 62.4086 173.989 60.8009 172.235C59.4855 170.335 24.7013 130.874 24.7013 130.874L24.5551 130.728C35.3704 132.628 47.0626 127.512 53.201 118.012C59.3393 108.951 59.0471 96.2358 53.3471 87.1743C46.478 77.3821 33.0319 74.1668 21.7782 75.6283C2.33998 78.4052 -11.6906 95.7973 -16.0752 114.066C-20.6059 134.82 -17.3906 154.404 -10.3753 172.82C-8.76759 176.766 -6.57531 180.858 -3.94456 184.219C-24.4059 175.158 -42.5288 158.643 -52.0287 136.428C-62.5516 112.459 -62.4055 82.059 -49.8364 57.7977C-40.0442 38.9441 -22.5059 21.552 -1.02152 14.2443C21.4859 4.8906 51.8856 6.93673 73.9546 19.3597C100.7 32.8057 120.869 66.1284 120.869 95.7973C121.746 126.635 108.3 154.404 84.7699 172.381Z" fill="#DAB866" fill-opacity="0.8"/>
<path fill-rule="evenodd" clip-rule="evenodd" d="M9.94066 184.073C0.00231123 173.258 -8.03606 159.081 -2.04382 144.466C3.36382 133.212 8.18684 121.959 10.5253 108.951C11.4022 122.397 19.5867 134.382 23.3867 147.389C24.8482 153.528 24.9943 160.104 22.6559 166.535C20.0252 173.55 15.7868 179.543 10.8176 184.95" fill="#DAB866" fill-opacity="0.8"/>
</g>
</svg>
