<svg width="20" height="20" viewBox="0 0 20 20" fill="none" xmlns="http://www.w3.org/2000/svg">
<path d="M19.3068 17.9983L14.8042 13.4967C16.1092 11.9299 16.76 9.92034 16.6211 7.88601C16.4822 5.85168 15.5644 3.94922 14.0585 2.57437C12.5527 1.19953 10.5747 0.45816 8.53621 0.504489C6.49767 0.550818 4.55548 1.38128 3.11364 2.82311C1.67181 4.26495 0.841345 6.20715 0.795016 8.24568C0.748687 10.2842 1.49006 12.2621 2.8649 13.768C4.23974 15.2738 6.14221 16.1917 8.17654 16.3306C10.2109 16.4695 12.2204 15.8187 13.7872 14.5137L18.2888 19.0162C18.3556 19.0831 18.435 19.1361 18.5223 19.1723C18.6097 19.2084 18.7033 19.2271 18.7978 19.2271C18.8923 19.2271 18.9859 19.2084 19.0732 19.1723C19.1606 19.1361 19.2399 19.0831 19.3068 19.0162C19.3736 18.9494 19.4266 18.87 19.4628 18.7827C19.499 18.6954 19.5176 18.6018 19.5176 18.5073C19.5176 18.4127 19.499 18.3191 19.4628 18.2318C19.4266 18.1445 19.3736 18.0651 19.3068 17.9983ZM2.25164 8.43569C2.25164 7.15514 2.63137 5.90335 3.3428 4.83861C4.05424 3.77387 5.06543 2.94401 6.2485 2.45396C7.43158 1.96391 8.7334 1.8357 9.98934 2.08552C11.2453 2.33534 12.3989 2.95199 13.3044 3.85747C14.2099 4.76296 14.8266 5.91662 15.0764 7.17256C15.3262 8.42851 15.198 9.73033 14.7079 10.9134C14.2179 12.0965 13.388 13.1077 12.3233 13.8191C11.2586 14.5305 10.0068 14.9103 8.72622 14.9103C7.00964 14.9084 5.36391 14.2256 4.1501 13.0118C2.9363 11.798 2.25354 10.1523 2.25164 8.43569Z" fill="#003C3C"/>
</svg>
