<svg width="21" height="21" viewBox="0 0 21 21" fill="none" xmlns="http://www.w3.org/2000/svg">
<path d="M20.7309 19.5404L15.9295 14.74C17.3212 13.0693 18.0151 10.9263 17.867 8.75696C17.7189 6.5876 16.7401 4.55886 15.1343 3.09276C13.5285 1.62666 11.4193 0.83608 9.24548 0.885484C7.07164 0.934888 5.00053 1.82047 3.46299 3.35801C1.92545 4.89555 1.03987 6.96666 0.990465 9.1405C0.941061 11.3143 1.73164 13.4236 3.19774 15.0294C4.66384 16.6352 6.69258 17.6139 8.86194 17.762C11.0313 17.9101 13.1742 17.2162 14.845 15.8246L19.6454 20.6259C19.7167 20.6972 19.8013 20.7538 19.8944 20.7923C19.9876 20.8309 20.0874 20.8508 20.1882 20.8508C20.289 20.8508 20.3888 20.8309 20.4819 20.7923C20.575 20.7538 20.6596 20.6972 20.7309 20.6259C20.8022 20.5547 20.8587 20.4701 20.8973 20.3769C20.9359 20.2838 20.9557 20.184 20.9557 20.0832C20.9557 19.9824 20.9359 19.8826 20.8973 19.7894C20.8587 19.6963 20.8022 19.6117 20.7309 19.5404ZM2.54377 9.34312C2.54377 7.97757 2.9487 6.64269 3.70736 5.50728C4.46602 4.37187 5.54433 3.48692 6.80593 2.96435C8.06753 2.44178 9.45576 2.30505 10.7951 2.57146C12.1344 2.83786 13.3646 3.49543 14.3302 4.46102C15.2958 5.42661 15.9534 6.65684 16.2198 7.99615C16.4862 9.33546 16.3494 10.7237 15.8269 11.9853C15.3043 13.2469 14.4194 14.3252 13.2839 15.0839C12.1485 15.8425 10.8136 16.2474 9.4481 16.2474C7.61758 16.2454 5.86262 15.5173 4.56825 14.223C3.27387 12.9286 2.5458 11.1736 2.54377 9.34312Z" fill="#003C3C"/>
</svg>
