<svg width="94" height="94" viewBox="0 0 94 94" fill="none" xmlns="http://www.w3.org/2000/svg">
<circle cx="47" cy="47" r="47" fill="black" fill-opacity="0.39"/>
<path d="M46.9975 12.9336C40.2597 12.9336 33.6732 14.9316 28.071 18.6749C22.4687 22.4182 18.1023 27.7387 15.5239 33.9636C12.9454 40.1885 12.2708 47.0382 13.5853 53.6465C14.8997 60.2548 18.1443 66.3249 22.9086 71.0893C27.6729 75.8536 33.7431 79.0981 40.3514 80.4126C46.9597 81.7271 53.8094 81.0525 60.0343 78.474C66.2592 75.8956 71.5797 71.5292 75.323 65.9269C79.0663 60.3246 81.0643 53.7382 81.0643 47.0004C81.0541 37.9684 77.4617 29.3093 71.0751 22.9228C64.6885 16.5362 56.0294 12.9438 46.9975 12.9336ZM46.9975 78.3419C40.7987 78.3419 34.7392 76.5037 29.5851 73.0599C24.431 69.616 20.4139 64.7212 18.0417 58.9943C15.6696 53.2674 15.0489 46.9656 16.2582 40.886C17.4676 34.8063 20.4525 29.2218 24.8357 24.8386C29.2189 20.4555 34.8034 17.4705 40.8831 16.2612C46.9627 15.0518 53.2644 15.6725 58.9913 18.0447C64.7182 20.4168 69.6131 24.4339 73.057 29.588C76.5008 34.7421 78.3389 40.8016 78.3389 47.0004C78.3296 55.3098 75.0245 63.2762 69.1489 69.1518C63.2733 75.0274 55.3069 78.3325 46.9975 78.3419ZM58.6548 45.8667L42.3027 34.9653C42.0975 34.8284 41.859 34.7499 41.6127 34.738C41.3663 34.726 41.1213 34.7812 40.9039 34.8976C40.6864 35.014 40.5046 35.1872 40.3778 35.3988C40.2511 35.6103 40.1841 35.8524 40.1841 36.099V57.9018C40.1841 58.1484 40.2511 58.3904 40.3778 58.602C40.5046 58.8136 40.6864 58.9868 40.9039 59.1032C41.1213 59.2196 41.3663 59.2747 41.6127 59.2628C41.859 59.2509 42.0975 59.1723 42.3027 59.0355L58.6548 48.1341C58.8414 48.0097 58.9945 47.8411 59.1003 47.6433C59.2061 47.4456 59.2615 47.2247 59.2615 47.0004C59.2615 46.7761 59.2061 46.5552 59.1003 46.3575C58.9945 46.1597 58.8414 45.9911 58.6548 45.8667ZM42.9095 55.3556V38.6452L55.4426 47.0004L42.9095 55.3556Z" fill="white"/>
<path d="M57.2492 46.1101C57.7773 46.4622 57.7773 47.2383 57.2492 47.5904L42.7089 57.2839C42.1178 57.678 41.326 57.2542 41.326 56.5437L41.326 37.1567C41.326 36.4463 42.1178 36.0225 42.7089 36.4166L57.2492 46.1101Z" fill="white"/>
</svg>
